<?xml version="1.0" encoding="iso-8859-1"?>
<!-- Generator: Adobe Illustrator 19.0.0, SVG Export Plug-In . SVG Version: 6.00 Build 0)  -->
<svg xmlns="http://www.w3.org/2000/svg" xmlns:xlink="http://www.w3.org/1999/xlink" version="1.1" id="Capa_1" x="0px" y="0px" viewBox="0 0 204 204" style="enable-background:new 0 0 204 204;" xml:space="preserve" width="512px" height="512px">
<g>
	<path d="M89,89h25v31h51V14h-16V0H55v14H39v106h50V89z M126,29h24v16h-24V29z M126,59h24v16h-24V59z M126,89h24v16h-24V89z M89,29   h25v16H89V29z M89,59h25v16H89V59z M77,105H53V89h24V105z M77,75H53V59h24V75z M77,45H53V29h24V45z" fill="#91DC5A"/>
	<polygon points="164,174 164,153 164,135 164,134 40,134 40,135 40,153 40,174 29,174 29,204 70,204 70,174 59,174 59,153    60.083,153 145,153 145,174 134,174 134,204 175,204 175,174  " fill="#91DC5A"/>
</g>
<g>
</g>
<g>
</g>
<g>
</g>
<g>
</g>
<g>
</g>
<g>
</g>
<g>
</g>
<g>
</g>
<g>
</g>
<g>
</g>
<g>
</g>
<g>
</g>
<g>
</g>
<g>
</g>
<g>
</g>
</svg>
