<?xml version="1.0" encoding="iso-8859-1"?>
<!-- Generator: Adobe Illustrator 16.0.0, SVG Export Plug-In . SVG Version: 6.00 Build 0)  -->
<!DOCTYPE svg PUBLIC "-//W3C//DTD SVG 1.1//EN" "http://www.w3.org/Graphics/SVG/1.1/DTD/svg11.dtd">
<svg xmlns="http://www.w3.org/2000/svg" xmlns:xlink="http://www.w3.org/1999/xlink" version="1.1" id="Capa_1" x="0px" y="0px" width="512px" height="512px" viewBox="0 0 237.307 237.307" style="enable-background:new 0 0 237.307 237.307;" xml:space="preserve">
<g>
	<g>
		<path d="M69.94,120.565l-9.49-9.483l8.007-19.354h-0.082l-3.105-3.568c1.51,0.542,3.062,0.874,4.688,0.874    c1.629,0,3.188-0.323,4.695-0.868l-3.118,3.562h-0.073l8.01,19.354l-9.502,9.483c5.831-0.006,11.655-0.335,16.794-0.986    c-0.015-0.316-0.088-0.627-0.088-0.943c0-8.671,3.498-16.526,9.122-22.302c-4.497-4.476-10.531-8.281-17.464-10.044    C84.469,82.155,88.7,74.017,88.7,66.674c0-10.364-8.378-18.755-18.748-18.755c-10.352,0-18.749,8.391-18.749,18.755    c0,7.343,4.238,15.476,10.375,19.616c-14.69,3.735-25.571,16.48-25.571,25.931C36.008,117.808,52.966,120.578,69.94,120.565z" fill="#91DC5A"/>
		<polygon points="69.952,120.584 69.964,120.565 69.94,120.565   " fill="#91DC5A"/>
		<path d="M150.633,118.636c0,0.316-0.072,0.627-0.085,0.938c5.14,0.657,10.961,0.98,16.788,0.986l-9.505-9.484l8.007-19.354h-0.079    l-3.111-3.568c1.504,0.542,3.062,0.874,4.694,0.874c1.626,0,3.185-0.326,4.688-0.868l-3.111,3.562h-0.079l8.025,19.354    l-9.511,9.484c16.977,0.013,33.929-2.752,33.929-8.352c0-9.456-10.888-22.204-25.568-25.931    c6.144-4.134,10.369-12.272,10.369-19.616c0-10.363-8.391-18.757-18.742-18.757c-10.357,0-18.755,8.394-18.755,18.757    c0,7.344,4.238,15.476,10.376,19.616c-6.936,1.763-12.964,5.569-17.463,10.044C147.132,102.101,150.633,109.958,150.633,118.636z" fill="#91DC5A"/>
		<polygon points="167.348,120.584 167.36,120.565 167.336,120.565   " fill="#91DC5A"/>
		<path d="M213.869,120.584l16.532,15.174h-84.024c-1.005,2.016-2.149,3.982-3.477,5.81c3.239,1.638,6.247,3.629,9.091,5.79h85.315    v-11.6L213.869,120.584z" fill="#91DC5A"/>
		<path d="M94.406,141.555c-1.322-1.826-2.469-3.775-3.477-5.809H6.89l16.541-15.168L0,135.746v11.6h85.315    C88.152,145.196,91.164,143.199,94.406,141.555z" fill="#91DC5A"/>
		<path d="M129.656,144.381c8.056-5.432,13.604-16.112,13.604-25.745c0-13.609-11.016-24.622-24.604-24.622    c-13.601,0-24.604,11.019-24.604,24.622c0,9.633,5.547,20.313,13.609,25.745c-19.278,4.883-33.563,21.616-33.563,34.038    c0,14.645,89.115,14.645,89.115,0C163.207,165.997,148.929,149.264,129.656,144.381z" fill="#91DC5A"/>
	</g>
</g>
<g>
</g>
<g>
</g>
<g>
</g>
<g>
</g>
<g>
</g>
<g>
</g>
<g>
</g>
<g>
</g>
<g>
</g>
<g>
</g>
<g>
</g>
<g>
</g>
<g>
</g>
<g>
</g>
<g>
</g>
</svg>
