<?xml version="1.0" encoding="utf-8"?>
<!DOCTYPE svg PUBLIC "-//W3C//DTD SVG 1.1//EN" "http://www.w3.org/Graphics/SVG/1.1/DTD/svg11.dtd">
<svg xmlns="http://www.w3.org/2000/svg" xmlns:xlink="http://www.w3.org/1999/xlink" version="1.1" baseProfile="full" width="452.667" height="215.566" viewBox="0 0 452.67 215.57" enable-background="new 0 0 452.67 215.57" xml:space="preserve">
	<ellipse fill="#86D73E" fill-opacity="0.752941" stroke-width="4" stroke-linejoin="round" stroke="#FFFFFF" stroke-opacity="0.752941" cx="231.871" cy="139.25" rx="15.843" ry="16"/>
	<ellipse fill="#FC6161" fill-opacity="0.752941" stroke-width="4" stroke-linejoin="round" stroke="#FFFFFF" stroke-opacity="0.752941" cx="231.871" cy="176" rx="15.843" ry="16"/>
	<ellipse fill="#24D9FF" fill-opacity="0.752941" stroke-width="4" stroke-linejoin="round" stroke="#FFFFFF" stroke-opacity="0.752941" cx="194.374" cy="176" rx="15.843" ry="16"/>
	<g>
		<path fill="#86D73E" fill-opacity="0.752941" stroke-width="4" stroke-linejoin="round" stroke="#FFFFFF" stroke-opacity="0.752941" d="M 55.3715,127.423C 55.3715,126.16 55.1394,125.007 54.6753,123.963C 54.2112,122.919 53.3326,121.946 52.0397,121.042C 50.7468,120.139 48.9856,119.275 46.7561,118.45C 44.5266,117.626 41.6465,116.828 38.1158,116.056C 33.8225,115.073 29.8484,113.841 26.1934,112.359C 22.5383,110.876 19.3806,109.039 16.7201,106.846C 14.0596,104.653 11.9752,102.105 10.4668,99.2021C 8.95834,96.2988 8.20413,92.9263 8.20413,89.0845C 8.20413,85.3655 8.97077,81.8352 10.5041,78.4934C 12.0374,75.1515 14.242,72.2044 17.1179,69.652C 19.9939,67.0996 23.5163,65.0823 27.6852,63.6C 31.8541,62.1176 36.5493,61.3764 41.7708,61.3764C 47.2078,61.3764 52.1019,62.0913 56.4531,63.521C 60.8043,64.9507 64.4967,66.9374 67.5301,69.481C 70.5635,72.0246 72.8966,75.0507 74.5294,78.5591C 76.1621,82.0676 76.9785,85.9094 76.9785,90.0844L 54.5261,90.0844C 54.5261,86.6812 53.4901,83.8701 51.4181,81.651C 49.3461,79.4319 46.1055,78.3223 41.6962,78.3223C 37.9168,78.3223 34.9912,79.2257 32.9191,81.0326C 30.8471,82.8395 29.8111,85.1463 29.8111,87.953C 29.8111,89.2687 30.0846,90.4309 30.6316,91.4396C 31.1786,92.4482 32.0613,93.378 33.2797,94.2288C 34.498,95.0796 36.1018,95.8602 38.0909,96.5707C 40.08,97.2812 42.525,97.9434 45.4258,98.5574C 49.9843,99.4871 54.207,100.636 58.0941,102.004C 61.9812,103.373 65.3379,105.14 68.1641,107.307C 70.9904,109.473 73.2033,112.104 74.8029,115.201C 76.4025,118.297 77.2023,122.038 77.2023,126.423C 77.2023,130.37 76.3735,134.002 74.7159,137.317C 73.0583,140.633 70.6879,143.496 67.6047,145.908C 64.5215,148.32 60.8043,150.211 56.4531,151.579C 52.1019,152.947 47.2326,153.631 41.8454,153.631C 35.9443,153.631 30.7394,152.754 26.2307,151C 21.722,149.246 17.9302,146.943 14.8553,144.093C 11.7804,141.242 9.46391,138.036 7.90576,134.475C 6.3476,130.914 5.56852,127.327 5.56852,123.713L 26.8523,123.713C 26.9683,126.011 27.4532,127.998 28.3068,129.673C 29.1605,131.348 30.2835,132.708 31.6759,133.752C 33.0683,134.795 34.6845,135.563 36.5244,136.054C 38.3644,136.545 40.2955,136.791 42.3178,136.791C 46.6276,136.791 49.8807,135.927 52.077,134.199C 54.2733,132.471 55.3715,130.212 55.3715,127.423 Z "/>
		<path fill="#86D73E" fill-opacity="0.752941" stroke-width="4" stroke-linejoin="round" stroke="#FFFFFF" stroke-opacity="0.752941" d="M 139.711,152C 138.683,149.86 137.937,147.202 137.473,144.027C 135.186,146.711 132.322,148.983 128.883,150.842C 125.443,152.702 121.237,153.631 116.264,153.631C 112.219,153.631 108.448,152.974 104.951,151.658C 101.453,150.342 98.4239,148.509 95.8628,146.158C 93.3018,143.808 91.2961,141.001 89.8457,137.738C 88.3953,134.475 87.6701,130.897 87.6701,127.002C 87.6701,122.336 88.4823,118.196 90.1068,114.582C 91.7312,110.969 94.1762,107.899 97.4417,105.373C 100.707,102.846 104.764,100.926 109.613,99.6099C 114.461,98.2942 120.093,97.6364 126.508,97.6364L 136.528,97.6364L 136.528,92.5579C 136.528,88.4355 135.534,85.1419 133.545,82.6772C 131.555,80.2125 128.406,78.9801 124.096,78.9801C 120.317,78.9801 117.354,79.9406 115.207,81.8615C 113.061,83.7824 111.987,86.4093 111.987,89.7423L 89.5349,89.7423C 89.5349,85.9181 90.3762,82.2781 92.0586,78.8223C 93.7411,75.3664 96.1364,72.3492 99.2444,69.7704C 102.352,67.1917 106.107,65.148 110.508,63.6394C 114.909,62.1308 119.828,61.3764 125.265,61.3764C 130.138,61.3764 134.647,62.0343 138.791,63.35C 142.935,64.6656 146.507,66.626 149.507,69.231C 152.508,71.836 154.849,75.0989 156.531,79.0196C 158.214,82.9403 159.055,87.5057 159.055,92.7158L 159.055,130.37C 159.055,132.896 159.134,135.159 159.291,137.159C 159.449,139.159 159.656,140.966 159.913,142.58C 160.17,144.194 160.506,145.645 160.92,146.935C 161.334,148.224 161.832,149.448 162.412,150.605L 162.412,152L 139.711,152 Z M 121.137,135.475C 123.06,135.475 124.838,135.23 126.471,134.738C 128.103,134.247 129.566,133.603 130.859,132.804C 132.152,132.006 133.279,131.085 134.241,130.041C 135.202,128.998 135.965,127.932 136.528,126.844L 136.528,111.53L 127.279,111.53C 124.328,111.53 121.767,111.876 119.596,112.569C 117.424,113.262 115.638,114.223 114.237,115.451C 112.837,116.679 111.801,118.13 111.129,119.805C 110.458,121.481 110.122,123.301 110.122,125.266C 110.122,128.23 111.105,130.673 113.069,132.594C 115.033,134.515 117.723,135.475 121.137,135.475 Z "/>
		<rect x="178.101" y="25.6954" fill="#86D73E" fill-opacity="0.752941" stroke-width="4" stroke-linejoin="round" stroke="#FFFFFF" stroke-opacity="0.752941" width="22.5269" height="126.305"/>
	</g>
	<g>
		<path fill="#86D73E" fill-opacity="0.752941" stroke-width="4" stroke-linejoin="round" stroke="#FFFFFF" stroke-opacity="0.752941" d="M 285.724,120.881L 301.264,65.5437L 325.357,65.5437L 291.716,167.824C 290.937,170.069 289.938,172.508 288.72,175.139C 287.502,177.771 285.856,180.227 283.784,182.507C 281.712,184.788 279.151,186.682 276.101,188.191C 273.051,189.699 269.297,190.454 264.838,190.454C 263.794,190.454 262.857,190.41 262.028,190.322C 261.199,190.234 260.4,190.138 259.629,190.033C 258.858,189.927 258.096,189.778 257.341,189.585C 256.587,189.392 255.771,189.156 254.892,188.875L 254.892,170.876C 255.456,170.876 256.036,170.89 256.633,170.916C 257.229,170.942 257.785,170.955 258.299,170.955C 260.536,170.955 262.443,170.776 264.017,170.416C 265.592,170.056 266.951,169.482 268.095,168.692C 269.239,167.903 270.2,166.903 270.979,165.693C 271.758,164.482 272.43,163.053 272.993,161.404L 275.405,154.746L 245.941,65.5437L 270.109,65.5437L 285.724,120.881 Z "/>
		<path fill="#86D73E" fill-opacity="0.752941" stroke-width="4" stroke-linejoin="round" stroke="#FFFFFF" stroke-opacity="0.752941" d="M 330.405,109.198C 330.405,102.725 331.287,96.7207 333.053,91.1861C 334.818,85.6516 337.383,80.8713 340.748,76.8453C 344.113,72.8193 348.27,69.653 353.218,67.3462C 358.166,65.0393 363.797,63.886 370.113,63.886C 376.495,63.886 382.172,65.0393 387.145,67.3462C 392.118,69.653 396.299,72.8193 399.689,76.8453C 403.079,80.8713 405.652,85.6516 407.409,91.1861C 409.166,96.7207 410.045,102.725 410.045,109.198L 410.045,110.934C 410.045,117.46 409.166,123.477 407.409,128.985C 405.652,134.494 403.079,139.261 399.689,143.287C 396.299,147.313 392.143,150.462 387.219,152.733C 382.296,155.005 376.644,156.141 370.262,156.141C 363.897,156.141 358.24,155.005 353.292,152.733C 348.344,150.462 344.175,147.313 340.786,143.287C 337.396,139.261 334.818,134.494 333.053,128.985C 331.287,123.477 330.405,117.46 330.405,110.934L 330.405,109.198 Z M 352.857,110.934C 352.857,114.548 353.168,117.943 353.79,121.118C 354.411,124.293 355.41,127.047 356.786,129.38C 358.161,131.713 359.952,133.564 362.156,134.932C 364.361,136.301 367.063,136.985 370.262,136.985C 373.378,136.985 376.039,136.301 378.243,134.932C 380.448,133.564 382.247,131.713 383.639,129.38C 385.031,127.047 386.038,124.293 386.66,121.118C 387.282,117.943 387.592,114.548 387.592,110.934L 387.592,109.198C 387.592,105.689 387.282,102.361 386.66,99.2118C 386.038,96.0629 385.031,93.2956 383.639,90.9099C 382.247,88.5241 380.436,86.6296 378.206,85.2261C 375.977,83.8228 373.279,83.1211 370.113,83.1211C 367.013,83.1211 364.361,83.8228 362.156,85.2261C 359.952,86.6296 358.161,88.5241 356.786,90.9099C 355.41,93.2956 354.411,96.0629 353.79,99.2118C 353.168,102.361 352.857,105.689 352.857,109.198L 352.857,110.934 Z "/>
	</g>
</svg>
