<?xml version="1.0" encoding="utf-8"?>
<!DOCTYPE svg PUBLIC "-//W3C//DTD SVG 1.1//EN" "http://www.w3.org/Graphics/SVG/1.1/DTD/svg11.dtd">
<svg xmlns="http://www.w3.org/2000/svg" xmlns:xlink="http://www.w3.org/1999/xlink" version="1.1" baseProfile="full" width="414.476" height="164.758" viewBox="0 0 414.48 164.76" enable-background="new 0 0 414.48 164.76" xml:space="preserve">
	<g>
		<ellipse fill="#4AE0FF" fill-opacity="1" stroke-linejoin="round" cx="231.158" cy="67.638" rx="15.843" ry="16"/>
		<g>
			<path fill="#86D73E" fill-opacity="1" stroke-linejoin="round" d="M 49.803,101.728C 49.803,100.465 49.5709,99.3114 49.1068,98.2676C 48.6427,97.2238 47.7641,96.2503 46.4712,95.3468C 45.1783,94.4434 43.417,93.5794 41.1875,92.755C 38.9581,91.9305 36.0779,91.1323 32.5472,90.3604C 28.254,89.3781 24.2799,88.1457 20.6249,86.6634C 16.9698,85.1811 13.8121,83.3435 11.1516,81.1507C 8.49113,78.9579 6.40668,76.4099 4.89825,73.5067C 3.38982,70.6034 2.6356,67.2309 2.6356,63.3891C 2.6356,59.6702 3.40225,56.1398 4.93554,52.798C 6.46884,49.4561 8.67346,46.5091 11.5494,43.9566C 14.4254,41.4042 17.9478,39.3869 22.1167,37.9046C 26.2856,36.4222 30.9808,35.6811 36.2023,35.6811C 41.6392,35.6811 46.5333,36.3959 50.8846,37.8256C 55.2358,39.2553 58.9281,41.242 61.9616,43.7856C 64.995,46.3293 67.3281,49.3553 68.9609,52.8637C 70.5936,56.3722 71.41,60.214 71.41,64.3891L 48.9576,64.3891C 48.9576,60.9858 47.9216,58.1747 45.8496,55.9556C 43.7776,53.7365 40.5369,52.6269 36.1277,52.6269C 32.3483,52.6269 29.4226,53.5304 27.3506,55.3372C 25.2786,57.1441 24.2426,59.4509 24.2426,62.2577C 24.2426,63.5733 24.5161,64.7355 25.0631,65.7442C 25.6101,66.7529 26.4928,67.6826 27.7111,68.5334C 28.9295,69.3842 30.5332,70.1649 32.5224,70.8753C 34.5115,71.5858 36.9565,72.248 39.8573,72.862C 44.4157,73.7917 48.6385,74.9408 52.5256,76.3091C 56.4127,77.6773 59.7694,79.4447 62.5956,81.6112C 65.4219,83.7777 67.6348,86.409 69.2344,89.5052C 70.834,92.6015 71.6338,96.3424 71.6338,100.728C 71.6338,104.675 70.805,108.306 69.1473,111.622C 67.4897,114.937 65.1193,117.801 62.0362,120.213C 58.953,122.625 55.2358,124.515 50.8846,125.884C 46.5333,127.252 41.6641,127.936 36.2769,127.936C 30.3758,127.936 25.1709,127.059 20.6621,125.305C 16.1534,123.55 12.3617,121.248 9.28678,118.397C 6.21191,115.547 3.89539,112.341 2.33723,108.78C 0.779079,105.219 0,101.631 0,98.0177L 21.2838,98.0177C 21.3998,100.316 21.8846,102.302 22.7383,103.978C 23.592,105.653 24.715,107.012 26.1074,108.056C 27.4998,109.1 29.116,109.867 30.9559,110.359C 32.7959,110.85 34.727,111.095 36.7493,111.095C 41.0591,111.095 44.3121,110.231 46.5085,108.504C 48.7048,106.776 49.803,104.517 49.803,101.728 Z "/>
			<path fill="#86D73E" fill-opacity="1" stroke-linejoin="round" d="M 134.142,126.305C 133.115,124.164 132.369,121.507 131.905,118.332C 129.617,121.016 126.754,123.287 123.314,125.147C 119.874,127.006 115.668,127.936 110.695,127.936C 106.651,127.936 102.88,127.278 99.3822,125.963C 95.8846,124.647 92.8553,122.814 90.2943,120.463C 87.7333,118.112 85.7276,115.306 84.2772,112.043C 82.8268,108.78 82.1016,105.201 82.1016,101.307C 82.1016,96.6406 82.9138,92.5006 84.5383,88.8869C 86.1627,85.2732 88.6077,82.2033 91.8732,79.6772C 95.1387,77.1511 99.1957,75.2302 104.044,73.9145C 108.893,72.5988 114.524,71.941 120.939,71.941L 130.96,71.941L 130.96,66.8625C 130.96,62.7401 129.965,59.4465 127.976,56.9818C 125.987,54.5171 122.837,53.2848 118.528,53.2848C 114.748,53.2848 111.785,54.2452 109.639,56.1661C 107.492,58.087 106.419,60.7139 106.419,64.047L 83.9664,64.047C 83.9664,60.2227 84.8076,56.5827 86.4901,53.1269C 88.1726,49.6711 90.5678,46.6538 93.6759,44.075C 96.7839,41.4964 100.538,39.4527 104.939,37.944C 109.34,36.4354 114.259,35.6811 119.696,35.6811C 124.57,35.6811 129.078,36.3389 133.222,37.6546C 137.366,38.9702 140.939,40.9306 143.939,43.5356C 146.939,46.1407 149.28,49.4035 150.963,53.3242C 152.645,57.245 153.487,61.8103 153.487,67.0204L 153.487,104.675C 153.487,107.201 153.565,109.464 153.723,111.464C 153.88,113.464 154.088,115.271 154.344,116.884C 154.601,118.498 154.937,119.95 155.352,121.239C 155.766,122.529 156.263,123.752 156.843,124.91L 156.843,126.305L 134.142,126.305 Z M 115.569,109.78C 117.492,109.78 119.269,109.534 120.902,109.043C 122.535,108.552 123.998,107.907 125.291,107.109C 126.584,106.311 127.711,105.39 128.672,104.346C 129.634,103.302 130.396,102.237 130.96,101.149L 130.96,85.8345L 121.71,85.8345C 118.76,85.8345 116.199,86.181 114.027,86.8739C 111.856,87.5668 110.07,88.5273 108.669,89.7552C 107.268,90.9832 106.232,92.4348 105.561,94.1101C 104.89,95.7854 104.554,97.6054 104.554,99.5702C 104.554,102.535 105.536,104.978 107.5,106.898C 109.465,108.819 112.154,109.78 115.569,109.78 Z "/>
			<rect x="172.533" y="3.05176e-005" fill="#86D73E" fill-opacity="1" stroke-linejoin="round" width="22.5269" height="126.305"/>
		</g>
		<g>
			<path fill="#86D73E" fill-opacity="1" stroke-linejoin="round" d="M 290.155,95.1855L 305.695,39.8483L 329.789,39.8483L 296.148,142.129C 295.368,144.374 294.37,146.813 293.151,149.444C 291.933,152.075 290.288,154.531 288.216,156.812C 286.144,159.092 283.583,160.987 280.533,162.495C 277.483,164.004 273.728,164.758 269.269,164.758C 268.225,164.758 267.289,164.714 266.46,164.627C 265.631,164.539 264.831,164.443 264.06,164.337C 263.29,164.232 262.527,164.083 261.773,163.89C 261.019,163.697 260.202,163.46 259.324,163.18L 259.324,145.181C 259.887,145.181 260.467,145.194 261.064,145.221C 261.661,145.247 262.216,145.26 262.73,145.26C 264.968,145.26 266.874,145.08 268.449,144.721C 270.024,144.361 271.383,143.786 272.527,142.997C 273.67,142.208 274.632,141.208 275.411,139.997C 276.19,138.787 276.861,137.357 277.425,135.708L 279.837,129.051L 250.373,39.8483L 274.541,39.8483L 290.155,95.1855 Z "/>
			<path fill="#86D73E" fill-opacity="1" stroke-linejoin="round" d="M 334.836,83.5023C 334.836,77.0292 335.719,71.0254 337.484,65.4908C 339.25,59.9562 341.815,55.1759 345.18,51.1499C 348.545,47.124 352.701,43.9576 357.649,41.6508C 362.597,39.344 368.229,38.1906 374.544,38.1906C 380.926,38.1906 386.603,39.344 391.576,41.6508C 396.549,43.9576 400.73,47.124 404.12,51.1499C 407.51,55.1759 410.084,59.9562 411.841,65.4908C 413.598,71.0254 414.476,77.0292 414.476,83.5023L 414.476,85.239C 414.476,91.7647 413.598,97.7818 411.841,103.29C 410.084,108.798 407.51,113.565 404.12,117.591C 400.73,121.617 396.574,124.766 391.651,127.038C 386.728,129.31 381.075,130.446 374.694,130.446C 368.328,130.446 362.672,129.31 357.724,127.038C 352.776,124.766 348.607,121.617 345.217,117.591C 341.827,113.565 339.25,108.798 337.484,103.29C 335.719,97.7818 334.836,91.7647 334.836,85.239L 334.836,83.5023 Z M 357.289,85.239C 357.289,88.8528 357.599,92.2472 358.221,95.4223C 358.843,98.5975 359.841,101.352 361.217,103.685C 362.593,106.018 364.383,107.869 366.588,109.237C 368.792,110.605 371.494,111.289 374.694,111.289C 377.81,111.289 380.47,110.605 382.675,109.237C 384.88,107.869 386.678,106.018 388.07,103.685C 389.463,101.352 390.47,98.5975 391.091,95.4223C 391.713,92.2472 392.024,88.8528 392.024,85.239L 392.024,83.5023C 392.024,79.9939 391.713,76.6652 391.091,73.5164C 390.47,70.3675 389.463,67.6002 388.07,65.2145C 386.678,62.8287 384.867,60.9342 382.638,59.5308C 380.408,58.1274 377.71,57.4257 374.544,57.4257C 371.445,57.4257 368.792,58.1274 366.588,59.5308C 364.383,60.9342 362.593,62.8287 361.217,65.2145C 359.841,67.6002 358.843,70.3675 358.221,73.5164C 357.599,76.6652 357.289,79.9939 357.289,83.5023L 357.289,85.239 Z "/>
		</g>
		<ellipse fill="#E56363" fill-opacity="1" stroke-linejoin="round" cx="231.158" cy="111.936" rx="15.843" ry="16"/>
	</g>
</svg>
